# xmcd CD database file
#
# Track frame offsets:
#	150
#	10270
#	22726
#	32339
#	40251
#	50658
#	69505
#	80328
#	89221
#	97696
#	107730
#	116970
#	128889
#	136818
#	145855
#	158217
#	169970
#	178417
#	189132
#	197309
#	207807
#	226650
#	235428
#	244754
#	254620
#
# Disc length: 3541 seconds
#
# Revision: 0
# Processed by: cddbd v1.5.2PL0 Copyright (c) Steve Scherf et al.
# Submitted via: CDex 1.70beta2
#
DISCID=4f0dd319
DTITLE=Johnny Cash - The Troubadour [CD 2/3)
DYEAR=2011
DGENRE=Country
TTITLE0=Get rhythm
TTITLE1=I walk the line
TTITLE2=I couldn't keep from crying
TTITLE3=I can't help it
TTITLE4=Why do you punish me (for loving you)?
TTITLE5=Old doc brown
TTITLE6=I heard that lonesome whistle blow
TTITLE7=Lead me gently home
TTITLE8=That's all over
TTITLE9=I could never be ashamed of you
TTITLE10=I feel better all over
TTITLE11=Doin' my time
TTITLE12=Five feet high and rising
TTITLE13=One more ride
TTITLE14=Give my love to Rose
TTITLE15=So doggone lonesome
TTITLE16=I forgot to remember to forget
TTITLE17=My shoes keep walking back to you
TTITLE18=It could be you (instead of him)
TTITLE19=God will
TTITLE20=Slow rider
TTITLE21=Katy too
TTITLE22=It was Jesus
TTITLE23=Shepherd of my heart
TTITLE24=I love you because
EXTD=YEAR: 2011
EXTT0=
EXTT1=
EXTT2=
EXTT3=
EXTT4=
EXTT5=
EXTT6=
EXTT7=
EXTT8=
EXTT9=
EXTT10=
EXTT11=
EXTT12=
EXTT13=
EXTT14=
EXTT15=
EXTT16=
EXTT17=
EXTT18=
EXTT19=
EXTT20=
EXTT21=
EXTT22=
EXTT23=
EXTT24=
PLAYORDER=
